<svg width="8.000000" height="14.000000" viewBox="0 0 8 14" fill="none" xmlns="http://www.w3.org/2000/svg" xmlns:xlink="http://www.w3.org/1999/xlink">
	<desc>
			Created with Pixso.
	</desc>
	<defs/>
	<path id="Path 38" d="M4.74 13.99L4.74 7.62L6.92 7.62L7.23 5.13L4.74 5.13L4.74 3.57C4.74 2.87 4.97 2.33 5.98 2.33L7.31 2.33L7.31 0.07C7 0.07 6.22 -6.11e-5 5.36 -6.11e-5C4.93 -0.03 4.49 0.03 4.09 0.19C3.68 0.34 3.32 0.58 3.01 0.89C2.71 1.2 2.48 1.58 2.33 1.98C2.19 2.39 2.13 2.83 2.17 3.26L2.17 5.13L0 5.13L0 7.62L2.17 7.62L2.17 13.99L4.74 13.99Z" fill="#ED165F" fill-opacity="1.000000" fill-rule="evenodd"/>
</svg>
