<svg width="15.000000" height="15.000000" viewBox="0 0 15 15" fill="none" xmlns="http://www.w3.org/2000/svg" xmlns:xlink="http://www.w3.org/1999/xlink">
	<desc>
			Created with Pixso.
	</desc>
	<defs/>
	<path id="Path 40" d="M7 1.24C7.93 1.2 8.86 1.23 9.8 1.32C10.25 1.31 10.69 1.39 11.12 1.55C11.7 1.82 12.17 2.29 12.44 2.87C12.6 3.29 12.68 3.74 12.67 4.19C12.67 4.89 12.75 5.13 12.75 6.99C12.79 7.93 12.76 8.86 12.67 9.79C12.68 10.25 12.6 10.69 12.44 11.12C12.17 11.7 11.7 12.17 11.12 12.44C10.7 12.6 10.25 12.68 9.8 12.67C9.1 12.67 8.86 12.75 7 12.75C6.06 12.78 5.13 12.76 4.2 12.67C3.74 12.68 3.3 12.6 2.87 12.44C2.29 12.17 1.82 11.7 1.55 11.12C1.39 10.69 1.31 10.25 1.32 9.79C1.32 9.09 1.24 8.86 1.24 6.99C1.2 6.06 1.23 5.13 1.32 4.19C1.31 3.74 1.39 3.3 1.55 2.87C1.69 2.58 1.87 2.32 2.09 2.09C2.28 1.82 2.56 1.63 2.87 1.55C3.3 1.39 3.74 1.31 4.2 1.32C5.13 1.23 6.06 1.2 7 1.24ZM7 -0.01C6.04 -0.04 5.07 -0.01 4.12 0.07C3.53 0.07 2.95 0.18 2.41 0.38C1.93 0.54 1.51 0.81 1.16 1.16C0.81 1.51 0.54 1.93 0.38 2.41C0.14 2.94 0.03 3.53 0.07 4.12C-0.01 5.07 -0.04 6.03 0 6.99C-0.04 7.95 -0.01 8.92 0.07 9.87C0.07 10.46 0.18 11.04 0.38 11.58C0.54 12.06 0.81 12.48 1.16 12.83C1.51 13.18 1.93 13.45 2.41 13.61C2.95 13.81 3.53 13.92 4.12 13.92C5.07 14 6.04 14.03 7 13.99C7.96 14.03 8.92 14 9.87 13.92C10.46 13.92 11.04 13.81 11.58 13.61C12.05 13.44 12.48 13.18 12.83 12.83C13.18 12.48 13.44 12.05 13.61 11.58C13.81 11.04 13.92 10.46 13.92 9.87C13.92 9.09 14 8.86 14 6.99C14.03 6.03 14 5.07 13.92 4.12C13.92 3.53 13.81 2.95 13.61 2.41C13.45 1.93 13.18 1.51 12.83 1.16C12.48 0.81 12.06 0.54 11.58 0.38C11.04 0.18 10.46 0.07 9.87 0.07C8.92 -0.01 7.96 -0.04 7 -0.01ZM7 3.42C6.52 3.41 6.05 3.5 5.62 3.67C5.18 3.85 4.78 4.11 4.45 4.45C4.11 4.78 3.85 5.18 3.67 5.62C3.5 6.05 3.41 6.52 3.42 6.99C3.42 7.7 3.63 8.39 4.02 8.98C4.41 9.57 4.97 10.03 5.63 10.3C6.28 10.57 7 10.64 7.69 10.5C8.39 10.37 9.02 10.03 9.53 9.52C10.03 9.02 10.37 8.39 10.5 7.69C10.64 7 10.57 6.28 10.3 5.63C10.03 4.97 9.57 4.41 8.98 4.02C8.39 3.63 7.7 3.42 7 3.42ZM7 9.33C6.69 9.33 6.38 9.28 6.1 9.16C5.81 9.05 5.55 8.87 5.33 8.66C5.12 8.44 4.94 8.18 4.83 7.89C4.71 7.61 4.66 7.3 4.66 6.99C4.66 6.69 4.71 6.38 4.83 6.1C4.94 5.81 5.12 5.55 5.33 5.33C5.55 5.12 5.81 4.94 6.1 4.83C6.38 4.71 6.69 4.66 7 4.66C7.3 4.66 7.61 4.71 7.89 4.83C8.18 4.94 8.44 5.12 8.66 5.33C8.87 5.55 9.05 5.81 9.16 6.1C9.28 6.38 9.33 6.69 9.33 6.99C9.33 7.3 9.28 7.61 9.16 7.89C9.05 8.18 8.87 8.44 8.66 8.66C8.44 8.87 8.18 9.05 7.89 9.16C7.61 9.28 7.3 9.33 7 9.33ZM10.73 2.41C10.56 2.41 10.39 2.46 10.25 2.55C10.11 2.64 10 2.78 9.94 2.93C9.87 3.09 9.86 3.26 9.89 3.43C9.92 3.59 10 3.75 10.12 3.87C10.24 3.99 10.4 4.07 10.56 4.1C10.73 4.13 10.9 4.12 11.06 4.05C11.21 3.99 11.35 3.88 11.44 3.74C11.53 3.6 11.58 3.43 11.58 3.26C11.58 3.04 11.49 2.82 11.33 2.66C11.17 2.5 10.95 2.41 10.73 2.41Z" fill="#ED165F" fill-opacity="1.000000" fill-rule="evenodd"/>
</svg>
