<svg width="14.000000" height="12.000000" viewBox="0 0 14 12" fill="none" xmlns="http://www.w3.org/2000/svg" xmlns:xlink="http://www.w3.org/1999/xlink">
	<desc>
			Created with Pixso.
	</desc>
	<defs/>
	<path id="Path 39" d="M4.43 11.35C5.5 11.36 6.57 11.16 7.56 10.75C8.56 10.34 9.46 9.74 10.22 8.98C10.99 8.22 11.59 7.32 11.99 6.32C12.4 5.33 12.6 4.26 12.6 3.18L12.6 2.8C13.14 2.38 13.61 1.88 14 1.32C13.47 1.54 12.92 1.7 12.36 1.78C12.94 1.42 13.38 0.87 13.61 0.23C13.04 0.54 12.44 0.78 11.82 0.93C11.55 0.63 11.23 0.4 10.87 0.23C10.51 0.07 10.11 -0.01 9.72 0C8.96 0.01 8.23 0.31 7.69 0.85C7.16 1.39 6.85 2.11 6.84 2.87C6.82 3.08 6.85 3.3 6.92 3.5C5.77 3.44 4.65 3.14 3.63 2.62C2.61 2.09 1.72 1.36 1.01 0.46C0.75 0.91 0.62 1.42 0.62 1.94C0.63 2.41 0.74 2.87 0.96 3.29C1.18 3.71 1.48 4.07 1.86 4.35C1.39 4.34 0.94 4.21 0.54 3.96C0.54 4.63 0.77 5.27 1.2 5.79C1.62 6.3 2.22 6.64 2.87 6.76C2.62 6.83 2.36 6.86 2.09 6.84C1.91 6.85 1.72 6.83 1.55 6.76C1.74 7.34 2.1 7.84 2.59 8.2C3.08 8.57 3.67 8.77 4.27 8.78C3.25 9.58 1.99 10.02 0.69 10.03C0.46 10.04 0.22 10.01 0 9.95C1.28 10.88 2.84 11.38 4.43 11.35L4.43 11.35Z" fill="#ED165F" fill-opacity="1.000000" fill-rule="evenodd"/>
</svg>
